<svg width="14" height="10" viewBox="0 0 14 10" fill="none" xmlns="http://www.w3.org/2000/svg">
<path d="M2.61467 8.84667C2.29022 8.52356 2.128 8.13022 2.128 7.66667H1.04733C0.952667 7.66667 0.873556 7.63467 0.81 7.57067C0.746445 7.50667 0.714444 7.42733 0.714 7.33267C0.713556 7.238 0.745556 7.15889 0.81 7.09533C0.874445 7.03178 0.953556 7 1.04733 7H2.29867C2.41911 6.70355 2.61356 6.46267 2.882 6.27733C3.15044 6.09244 3.45467 6 3.79467 6C4.13467 6 4.43911 6.09244 4.708 6.27733C4.976 6.46267 5.17022 6.70355 5.29067 7H8.36933L9.83333 0.666667H2.936C2.84133 0.666667 2.762 0.634667 2.698 0.570667C2.634 0.506667 2.60222 0.427333 2.60267 0.332667C2.60311 0.238 2.63489 0.158889 2.698 0.0953334C2.76111 0.0317779 2.84044 0 2.936 0H9.98733C10.158 0 10.2971 0.0684445 10.4047 0.205333C10.5127 0.342222 10.5473 0.494667 10.5087 0.662667L10.1267 2.33333H10.974C11.1447 2.33333 11.3062 2.37156 11.4587 2.448C11.6116 2.524 11.7373 2.62933 11.836 2.764L13.034 4.36267C13.1309 4.49244 13.1938 4.62778 13.2227 4.76867C13.252 4.90911 13.2542 5.05667 13.2293 5.21133L12.8307 7.236C12.8058 7.36578 12.7427 7.47 12.6413 7.54867C12.54 7.62733 12.4249 7.66667 12.296 7.66667H11.974C11.974 8.12844 11.8122 8.52178 11.4887 8.84667C11.1651 9.17156 10.7718 9.33378 10.3087 9.33333C9.84556 9.33289 9.452 9.17067 9.128 8.84667C8.80356 8.52311 8.64133 8.12978 8.64133 7.66667H5.46133C5.46133 8.12844 5.29956 8.52178 4.976 8.84667C4.65244 9.17156 4.25911 9.33378 3.796 9.33333C3.33289 9.33289 2.93867 9.17067 2.61467 8.84667ZM9.386 5.5H12.4873L12.6053 4.90667L11.1793 3H9.96733L9.386 5.5ZM8.53067 6.332L8.61733 5.94533C8.67511 5.68756 8.74844 5.372 8.83733 4.99867C8.88756 4.79422 8.93156 4.60533 8.96933 4.432C9.00667 4.25867 9.03644 4.11511 9.05867 4.00133L9.14533 3.61467C9.20311 3.35689 9.27644 3.04133 9.36533 2.668C9.45422 2.29467 9.52756 1.97911 9.58533 1.72133L9.672 1.33467L9.83333 0.666667L8.36933 7L8.53067 6.332ZM0.320667 5.332C0.229556 5.332 0.153333 5.3 0.092 5.236C0.0306667 5.172 0 5.09289 0 4.99867C0 4.90444 0.032 4.82511 0.096 4.76067C0.16 4.69622 0.239111 4.66444 0.333333 4.66533H2.65333C2.748 4.66533 2.82733 4.69733 2.89133 4.76133C2.95533 4.82533 2.98733 4.90467 2.98733 4.99933C2.98733 5.094 2.95533 5.17311 2.89133 5.23667C2.82733 5.30022 2.74822 5.332 2.654 5.332H0.320667ZM1.654 3.00133C1.55933 3.00133 1.48 2.96933 1.416 2.90533C1.352 2.84133 1.32022 2.762 1.32067 2.66733C1.32111 2.57267 1.35289 2.49356 1.416 2.43C1.47911 2.36644 1.55844 2.33467 1.654 2.33467H4.654C4.74822 2.33467 4.82733 2.36667 4.89133 2.43067C4.95533 2.49467 4.98733 2.574 4.98733 2.66867C4.98733 2.76333 4.95533 2.84244 4.89133 2.906C4.82733 2.96956 4.74822 3.00133 4.654 3.00133H1.654ZM3.79467 8.66667C4.06889 8.66667 4.30422 8.56867 4.50067 8.37267C4.69667 8.17622 4.79467 7.94089 4.79467 7.66667C4.79467 7.39244 4.69667 7.15711 4.50067 6.96067C4.30467 6.76422 4.06933 6.66622 3.79467 6.66667C3.52 6.66711 3.28467 6.76511 3.08867 6.96067C2.89267 7.15711 2.79467 7.39244 2.79467 7.66667C2.79467 7.94089 2.89267 8.17622 3.08867 8.37267C3.28511 8.56867 3.52044 8.66667 3.79467 8.66667ZM10.308 8.66667C10.5822 8.66667 10.8173 8.56867 11.0133 8.37267C11.2093 8.17622 11.3073 7.94089 11.3073 7.66667C11.3073 7.39244 11.2093 7.15711 11.0133 6.96067C10.8173 6.76422 10.582 6.66622 10.3073 6.66667C10.0327 6.66711 9.79756 6.76511 9.602 6.96067C9.40556 7.15711 9.30733 7.39244 9.30733 7.66667C9.30733 7.94089 9.40533 8.17622 9.60133 8.37267C9.79778 8.56867 10.0333 8.66667 10.308 8.66667Z" fill="#3D3B2F"/>
</svg>
